<svg width="48" height="48" viewBox="0 0 32 32" fill="none" xmlns="http://www.w3.org/2000/svg">
<rect width="32" height="32" rx="5.06667" fill="#8ACE00"/>
<path d="M8.02133 23.5733C6.76978 23.5733 5.824 23.1964 5.184 22.4427C4.544 21.6747 4.32355 20.6649 4.52266 19.4133L5.86666 10.88H2.13333L2.60266 8H9.536L7.744 19.3067C7.67289 19.7191 7.72978 20.0533 7.91467 20.3093C8.11378 20.5653 8.40533 20.6933 8.78933 20.6933H12.096L11.648 23.5733H8.02133Z" fill="black"/>
<path d="M20.0663 23.7867C19.2841 23.7867 18.6441 23.5876 18.1463 23.1893C17.6628 22.7769 17.3499 22.208 17.2077 21.4827L16.8877 23.5733H13.7943L16.269 8H19.469L18.957 11.2L18.445 13.8667C18.8148 13.1413 19.2983 12.5867 19.8957 12.2027C20.5072 11.8187 21.2112 11.6267 22.0077 11.6267C23.1454 11.6267 23.9917 12.0462 24.5463 12.8853C25.1152 13.7102 25.293 14.8196 25.0797 16.2133L24.589 19.2C24.3757 20.608 23.8637 21.7244 23.053 22.5493C22.2423 23.3742 21.2468 23.7867 20.0663 23.7867ZM19.277 21.0133C19.8601 21.0133 20.3366 20.8498 20.7063 20.5227C21.0761 20.1813 21.3108 19.7049 21.4103 19.0933L21.8583 16.32C21.9579 15.6942 21.8726 15.2178 21.6023 14.8907C21.3321 14.5636 20.9054 14.4 20.3223 14.4C19.7108 14.4 19.2201 14.5778 18.8503 14.9333C18.4806 15.2747 18.2388 15.7724 18.125 16.4267L17.7197 18.9867C17.6201 19.6409 17.6983 20.1458 17.9543 20.5013C18.2246 20.8427 18.6654 21.0133 19.277 21.0133Z" fill="black"/>
<path d="M26.9333 20.64H30.1333V23.84H26.9333V20.64Z" fill="black"/>
</svg>
